{"accessors" : [{"bufferView" : 0, "byteOffset" : 0, "componentType" : 5123, "count" : 7464, "type" : "SCALAR", "max" : [7463], "min" : [0]}, {"bufferView" : 1, "byteOffset" : 0, "componentType" : 5126, "count" : 7464, "type" : "VEC3", "max" : [50, 55.5, 50], "min" : [0, 0, 0]}, {"bufferView" : 1, "byteOffset" : 12, "componentType" : 5126, "count" : 7464, "type" : "VEC3", "max" : [0.999103307723999, 1.0000044107437134, 0.9991031885147095], "min" : [-0.999103307723999, -1.0000044107437134, -0.9964017868041992]}], "asset" : {"generator" : "Aspose.3D 20.9.1", "version" : "2.0"}, "buffers" : [{"uri" : "buffer.bin", "byteLength" : 194072}], "bufferViews" : [{"buffer" : 0, "byteOffset" : 0, "byteLength" : 14928, "target" : 34963}, {"buffer" : 0, "byteOffset" : 14932, "byteLength" : 179136, "byteStride" : 24, "target" : 34962}], "materials" : [{"pbrMetallicRoughness" : {"baseColorFactor" : [1, 1, 1, 1], "metallicFactor" : 0, "roughnessFactor" : 0}, "emissiveFactor" : [0, 0, 0], "alphaMode" : "OPAQUE", "doubleSided" : false}], "meshes" : [{"primitives" : [{"attributes" : {"POSITION" : 1, "NORMAL" : 2}, "indices" : 0, "material" : 0, "mode" : 4}]}], "nodes" : [{"mesh" : 0, "name" : "Node_0x55c272be1d10"}], "scene" : 0, "scenes" : [{"nodes" : [0]}]}